<?xml version="1.0" encoding="UTF-8" standalone="no"?>
<!DOCTYPE svg PUBLIC "-//W3C//DTD SVG 1.1//EN"
 "http://www.w3.org/Graphics/SVG/1.1/DTD/svg11.dtd">
<!-- Generated by graphviz version 2.40.1 (20161225.0304)
 -->
<!-- Title: models_diagram Pages: 1 -->
<svg width="665pt" height="453pt"
 viewBox="0.00 0.00 664.91 453.00" xmlns="http://www.w3.org/2000/svg" xmlns:xlink="http://www.w3.org/1999/xlink">
<g id="graph0" class="graph" transform="scale(1 1) rotate(0) translate(4 449)">
<title>models_diagram</title>
<polygon fill="transparent" stroke="transparent" points="-4,4 -4,-449 660.9104,-449 660.9104,4 -4,4"/>
<!-- _diagram_info -->
<g id="node1" class="node">
<title>_diagram_info</title>
<text text-anchor="start" x="8" y="-409.6" font-family="Times,serif" font-size="13.00" fill="#000000">Models diagram</text>
<text text-anchor="start" x="8" y="-396.6" font-family="Times,serif" font-size="13.00" fill="#000000">Date: Jul 16 2017 &#45; 00:35</text>
<text text-anchor="start" x="8" y="-383.6" font-family="Times,serif" font-size="13.00" fill="#000000">Migration version: 20170715222416</text>
<text text-anchor="start" x="8" y="-370.6" font-family="Times,serif" font-size="13.00" fill="#000000">Generated by RailRoady 1.5.2</text>
<text text-anchor="start" x="8" y="-357.6" font-family="Times,serif" font-size="13.00" fill="#000000">http://railroady.prestonlee.com</text>
</g>
<!-- ApplicationRecord -->
<g id="node2" class="node">
<title>ApplicationRecord</title>
<ellipse fill="none" stroke="#000000" cx="302.6877" cy="-387.5" rx="77.2916" ry="18"/>
<text text-anchor="middle" x="302.6877" y="-383.3" font-family="Times,serif" font-size="14.00" fill="#000000">ApplicationRecord</text>
</g>
<!-- Circunscripcion -->
<g id="node3" class="node">
<title>Circunscripcion</title>
<path fill="none" stroke="#000000" d="M409.8479,-330.5C409.8479,-330.5 551.5276,-330.5 551.5276,-330.5 557.5276,-330.5 563.5276,-336.5 563.5276,-342.5 563.5276,-342.5 563.5276,-432.5 563.5276,-432.5 563.5276,-438.5 557.5276,-444.5 551.5276,-444.5 551.5276,-444.5 409.8479,-444.5 409.8479,-444.5 403.8479,-444.5 397.8479,-438.5 397.8479,-432.5 397.8479,-432.5 397.8479,-342.5 397.8479,-342.5 397.8479,-336.5 403.8479,-330.5 409.8479,-330.5"/>
<text text-anchor="middle" x="480.6877" y="-429.3" font-family="Times,serif" font-size="14.00" fill="#000000">Circunscripcion</text>
<polyline fill="none" stroke="#000000" points="397.8479,-422.5 563.5276,-422.5 "/>
<text text-anchor="start" x="405.8479" y="-407.3" font-family="Times,serif" font-size="14.00" fill="#000000">id :INTEGER</text>
<text text-anchor="start" x="405.8479" y="-393.3" font-family="Times,serif" font-size="14.00" fill="#000000">circ :varchar</text>
<text text-anchor="start" x="405.8479" y="-379.3" font-family="Times,serif" font-size="14.00" fill="#000000">region :varchar</text>
<text text-anchor="start" x="405.8479" y="-365.3" font-family="Times,serif" font-size="14.00" fill="#000000">magnitud_senador :integer</text>
<text text-anchor="start" x="405.8479" y="-351.3" font-family="Times,serif" font-size="14.00" fill="#000000">created_at :datetime</text>
<text text-anchor="start" x="405.8479" y="-337.3" font-family="Times,serif" font-size="14.00" fill="#000000">updated_at :datetime</text>
</g>
<!-- Distrito -->
<g id="node6" class="node">
<title>Distrito</title>
<path fill="none" stroke="#000000" d="M313.1204,-172.5C313.1204,-172.5 460.2551,-172.5 460.2551,-172.5 466.2551,-172.5 472.2551,-178.5 472.2551,-184.5 472.2551,-184.5 472.2551,-274.5 472.2551,-274.5 472.2551,-280.5 466.2551,-286.5 460.2551,-286.5 460.2551,-286.5 313.1204,-286.5 313.1204,-286.5 307.1204,-286.5 301.1204,-280.5 301.1204,-274.5 301.1204,-274.5 301.1204,-184.5 301.1204,-184.5 301.1204,-178.5 307.1204,-172.5 313.1204,-172.5"/>
<text text-anchor="middle" x="386.6877" y="-271.3" font-family="Times,serif" font-size="14.00" fill="#000000">Distrito</text>
<polyline fill="none" stroke="#000000" points="301.1204,-264.5 472.2551,-264.5 "/>
<text text-anchor="start" x="309.1204" y="-249.3" font-family="Times,serif" font-size="14.00" fill="#000000">id :INTEGER</text>
<text text-anchor="start" x="309.1204" y="-235.3" font-family="Times,serif" font-size="14.00" fill="#000000">numero_distrito :integer</text>
<text text-anchor="start" x="309.1204" y="-221.3" font-family="Times,serif" font-size="14.00" fill="#000000">created_at :datetime</text>
<text text-anchor="start" x="309.1204" y="-207.3" font-family="Times,serif" font-size="14.00" fill="#000000">updated_at :datetime</text>
<text text-anchor="start" x="309.1204" y="-193.3" font-family="Times,serif" font-size="14.00" fill="#000000">magnitud_diputado :integer</text>
<text text-anchor="start" x="309.1204" y="-179.3" font-family="Times,serif" font-size="14.00" fill="#000000">circunscripcion_id :integer</text>
</g>
<!-- Circunscripcion&#45;&gt;Distrito -->
<g id="edge1" class="edge">
<title>Circunscripcion&#45;&gt;Distrito</title>
<path fill="none" stroke="#909675" d="M442.5402,-323.3796C437.0698,-314.1847 431.4334,-304.7109 425.9421,-295.4808"/>
<ellipse fill="none" stroke="#909675" cx="444.7064" cy="-327.0207" rx="4" ry="4"/>
<polygon fill="#909675" stroke="#909675" points="425.8449,-295.3172 424.5992,-284.4223 423.2884,-291.0202 420.7319,-286.7231 420.7319,-286.7231 420.7319,-286.7231 423.2884,-291.0202 416.8645,-289.024 425.8449,-295.3172 425.8449,-295.3172"/>
</g>
<!-- Senador -->
<g id="node7" class="node">
<title>Senador</title>
<path fill="none" stroke="#000000" d="M502.4651,-165.5C502.4651,-165.5 644.9104,-165.5 644.9104,-165.5 650.9104,-165.5 656.9104,-171.5 656.9104,-177.5 656.9104,-177.5 656.9104,-281.5 656.9104,-281.5 656.9104,-287.5 650.9104,-293.5 644.9104,-293.5 644.9104,-293.5 502.4651,-293.5 502.4651,-293.5 496.4651,-293.5 490.4651,-287.5 490.4651,-281.5 490.4651,-281.5 490.4651,-177.5 490.4651,-177.5 490.4651,-171.5 496.4651,-165.5 502.4651,-165.5"/>
<text text-anchor="middle" x="573.6877" y="-278.3" font-family="Times,serif" font-size="14.00" fill="#000000">Senador</text>
<polyline fill="none" stroke="#000000" points="490.4651,-271.5 656.9104,-271.5 "/>
<text text-anchor="start" x="498.4651" y="-256.3" font-family="Times,serif" font-size="14.00" fill="#000000">pacto :varchar</text>
<text text-anchor="start" x="498.4651" y="-242.3" font-family="Times,serif" font-size="14.00" fill="#000000">candidato :varchar</text>
<text text-anchor="start" x="498.4651" y="-228.3" font-family="Times,serif" font-size="14.00" fill="#000000">partido :varchar</text>
<text text-anchor="start" x="498.4651" y="-214.3" font-family="Times,serif" font-size="14.00" fill="#000000">id :INTEGER</text>
<text text-anchor="start" x="498.4651" y="-200.3" font-family="Times,serif" font-size="14.00" fill="#000000">created_at :datetime</text>
<text text-anchor="start" x="498.4651" y="-186.3" font-family="Times,serif" font-size="14.00" fill="#000000">updated_at :datetime</text>
<text text-anchor="start" x="498.4651" y="-172.3" font-family="Times,serif" font-size="14.00" fill="#000000">circunscripcion_id :integer</text>
</g>
<!-- Circunscripcion&#45;&gt;Senador -->
<g id="edge2" class="edge">
<title>Circunscripcion&#45;&gt;Senador</title>
<path fill="none" stroke="#c8f4e7" d="M518.422,-323.3923C522.4752,-316.5063 526.6205,-309.4637 530.7288,-302.4841"/>
<ellipse fill="none" stroke="#c8f4e7" cx="516.2919" cy="-327.0112" rx="4" ry="4"/>
<polygon fill="#c8f4e7" stroke="#c8f4e7" points="530.8304,-302.3114 539.7811,-295.9761 533.3667,-298.0024 535.903,-293.6935 535.903,-293.6935 535.903,-293.6935 533.3667,-298.0024 532.0249,-291.4108 530.8304,-302.3114 530.8304,-302.3114"/>
</g>
<!-- Comuna -->
<g id="node4" class="node">
<title>Comuna</title>
<path fill="none" stroke="#000000" d="M257.1824,-7.5C257.1824,-7.5 366.1931,-7.5 366.1931,-7.5 372.1931,-7.5 378.1931,-13.5 378.1931,-19.5 378.1931,-19.5 378.1931,-109.5 378.1931,-109.5 378.1931,-115.5 372.1931,-121.5 366.1931,-121.5 366.1931,-121.5 257.1824,-121.5 257.1824,-121.5 251.1824,-121.5 245.1824,-115.5 245.1824,-109.5 245.1824,-109.5 245.1824,-19.5 245.1824,-19.5 245.1824,-13.5 251.1824,-7.5 257.1824,-7.5"/>
<text text-anchor="middle" x="311.6877" y="-106.3" font-family="Times,serif" font-size="14.00" fill="#000000">Comuna</text>
<polyline fill="none" stroke="#000000" points="245.1824,-99.5 378.1931,-99.5 "/>
<text text-anchor="start" x="253.1824" y="-84.3" font-family="Times,serif" font-size="14.00" fill="#000000">id :INTEGER</text>
<text text-anchor="start" x="253.1824" y="-70.3" font-family="Times,serif" font-size="14.00" fill="#000000">nombre :varchar</text>
<text text-anchor="start" x="253.1824" y="-56.3" font-family="Times,serif" font-size="14.00" fill="#000000">created_at :datetime</text>
<text text-anchor="start" x="253.1824" y="-42.3" font-family="Times,serif" font-size="14.00" fill="#000000">updated_at :datetime</text>
<text text-anchor="start" x="253.1824" y="-28.3" font-family="Times,serif" font-size="14.00" fill="#000000">distrito_id :integer</text>
<text text-anchor="start" x="253.1824" y="-14.3" font-family="Times,serif" font-size="14.00" fill="#000000">valor_voto :float</text>
</g>
<!-- Diputado -->
<g id="node5" class="node">
<title>Diputado</title>
<path fill="none" stroke="#000000" d="M408.1824,-.5C408.1824,-.5 517.1931,-.5 517.1931,-.5 523.1931,-.5 529.1931,-6.5 529.1931,-12.5 529.1931,-12.5 529.1931,-116.5 529.1931,-116.5 529.1931,-122.5 523.1931,-128.5 517.1931,-128.5 517.1931,-128.5 408.1824,-128.5 408.1824,-128.5 402.1824,-128.5 396.1824,-122.5 396.1824,-116.5 396.1824,-116.5 396.1824,-12.5 396.1824,-12.5 396.1824,-6.5 402.1824,-.5 408.1824,-.5"/>
<text text-anchor="middle" x="462.6877" y="-113.3" font-family="Times,serif" font-size="14.00" fill="#000000">Diputado</text>
<polyline fill="none" stroke="#000000" points="396.1824,-106.5 529.1931,-106.5 "/>
<text text-anchor="start" x="404.1824" y="-91.3" font-family="Times,serif" font-size="14.00" fill="#000000">pacto :varchar</text>
<text text-anchor="start" x="404.1824" y="-77.3" font-family="Times,serif" font-size="14.00" fill="#000000">candidato :varchar</text>
<text text-anchor="start" x="404.1824" y="-63.3" font-family="Times,serif" font-size="14.00" fill="#000000">partido :varchar</text>
<text text-anchor="start" x="404.1824" y="-49.3" font-family="Times,serif" font-size="14.00" fill="#000000">id :INTEGER</text>
<text text-anchor="start" x="404.1824" y="-35.3" font-family="Times,serif" font-size="14.00" fill="#000000">created_at :datetime</text>
<text text-anchor="start" x="404.1824" y="-21.3" font-family="Times,serif" font-size="14.00" fill="#000000">updated_at :datetime</text>
<text text-anchor="start" x="404.1824" y="-7.3" font-family="Times,serif" font-size="14.00" fill="#000000">distrito_id :integer</text>
</g>
<!-- Distrito&#45;&gt;Comuna -->
<g id="edge3" class="edge">
<title>Distrito&#45;&gt;Comuna</title>
<path fill="none" stroke="#afda3e" d="M357.3112,-164.8715C352.245,-153.7259 346.9709,-142.123 341.8835,-130.9307"/>
<ellipse fill="none" stroke="#afda3e" cx="359.0116" cy="-168.6126" rx="4" ry="4"/>
<polygon fill="#afda3e" stroke="#afda3e" points="341.8007,-130.7484 341.7593,-119.7826 339.7317,-126.1966 337.6626,-121.6447 337.6626,-121.6447 337.6626,-121.6447 339.7317,-126.1966 333.566,-123.5069 341.8007,-130.7484 341.8007,-130.7484"/>
</g>
<!-- Distrito&#45;&gt;Diputado -->
<g id="edge4" class="edge">
<title>Distrito&#45;&gt;Diputado</title>
<path fill="none" stroke="#50ed91" d="M416.4334,-164.9206C420.5021,-156.0874 424.7034,-146.9661 428.8383,-137.9889"/>
<ellipse fill="none" stroke="#50ed91" cx="414.729" cy="-168.6209" rx="4" ry="4"/>
<polygon fill="#50ed91" stroke="#50ed91" points="428.9314,-137.7867 437.2023,-130.5866 431.0232,-133.2453 433.115,-128.7039 433.115,-128.7039 433.115,-128.7039 431.0232,-133.2453 429.0278,-126.8213 428.9314,-137.7867 428.9314,-137.7867"/>
</g>
</g>
</svg>
