<?xml version="1.0" encoding="UTF-8" standalone="no"?>
<!DOCTYPE svg PUBLIC "-//W3C//DTD SVG 1.1//EN"
 "http://www.w3.org/Graphics/SVG/1.1/DTD/svg11.dtd">
<!-- Generated by graphviz version 2.40.1 (20161225.0304)
 -->
<!-- Title: models_diagram Pages: 1 -->
<svg width="670pt" height="453pt"
 viewBox="0.00 0.00 669.63 453.00" xmlns="http://www.w3.org/2000/svg" xmlns:xlink="http://www.w3.org/1999/xlink">
<g id="graph0" class="graph" transform="scale(1 1) rotate(0) translate(4 449)">
<title>models_diagram</title>
<polygon fill="transparent" stroke="transparent" points="-4,4 -4,-449 665.6345,-449 665.6345,4 -4,4"/>
<!-- _diagram_info -->
<g id="node1" class="node">
<title>_diagram_info</title>
<text text-anchor="start" x="8" y="-409.6" font-family="Times,serif" font-size="13.00" fill="#000000">Models diagram</text>
<text text-anchor="start" x="8" y="-396.6" font-family="Times,serif" font-size="13.00" fill="#000000">Date: Jul 15 2017 &#45; 18:20</text>
<text text-anchor="start" x="8" y="-383.6" font-family="Times,serif" font-size="13.00" fill="#000000">Migration version: 20170715215512</text>
<text text-anchor="start" x="8" y="-370.6" font-family="Times,serif" font-size="13.00" fill="#000000">Generated by RailRoady 1.5.2</text>
<text text-anchor="start" x="8" y="-357.6" font-family="Times,serif" font-size="13.00" fill="#000000">http://railroady.prestonlee.com</text>
</g>
<!-- ApplicationRecord -->
<g id="node2" class="node">
<title>ApplicationRecord</title>
<ellipse fill="none" stroke="#000000" cx="302.6877" cy="-387.5" rx="77.2916" ry="18"/>
<text text-anchor="middle" x="302.6877" y="-383.3" font-family="Times,serif" font-size="14.00" fill="#000000">ApplicationRecord</text>
</g>
<!-- Circunscripcion -->
<g id="node3" class="node">
<title>Circunscripcion</title>
<path fill="none" stroke="#000000" d="M409.8479,-330.5C409.8479,-330.5 551.5276,-330.5 551.5276,-330.5 557.5276,-330.5 563.5276,-336.5 563.5276,-342.5 563.5276,-342.5 563.5276,-432.5 563.5276,-432.5 563.5276,-438.5 557.5276,-444.5 551.5276,-444.5 551.5276,-444.5 409.8479,-444.5 409.8479,-444.5 403.8479,-444.5 397.8479,-438.5 397.8479,-432.5 397.8479,-432.5 397.8479,-342.5 397.8479,-342.5 397.8479,-336.5 403.8479,-330.5 409.8479,-330.5"/>
<text text-anchor="middle" x="480.6877" y="-429.3" font-family="Times,serif" font-size="14.00" fill="#000000">Circunscripcion</text>
<polyline fill="none" stroke="#000000" points="397.8479,-422.5 563.5276,-422.5 "/>
<text text-anchor="start" x="405.8479" y="-407.3" font-family="Times,serif" font-size="14.00" fill="#000000">id :INTEGER</text>
<text text-anchor="start" x="405.8479" y="-393.3" font-family="Times,serif" font-size="14.00" fill="#000000">circ :varchar</text>
<text text-anchor="start" x="405.8479" y="-379.3" font-family="Times,serif" font-size="14.00" fill="#000000">region :varchar</text>
<text text-anchor="start" x="405.8479" y="-365.3" font-family="Times,serif" font-size="14.00" fill="#000000">magnitud_senador :integer</text>
<text text-anchor="start" x="405.8479" y="-351.3" font-family="Times,serif" font-size="14.00" fill="#000000">created_at :datetime</text>
<text text-anchor="start" x="405.8479" y="-337.3" font-family="Times,serif" font-size="14.00" fill="#000000">updated_at :datetime</text>
</g>
<!-- Distrito -->
<g id="node6" class="node">
<title>Distrito</title>
<path fill="none" stroke="#000000" d="M311.741,-172.5C311.741,-172.5 459.6345,-172.5 459.6345,-172.5 465.6345,-172.5 471.6345,-178.5 471.6345,-184.5 471.6345,-184.5 471.6345,-274.5 471.6345,-274.5 471.6345,-280.5 465.6345,-286.5 459.6345,-286.5 459.6345,-286.5 311.741,-286.5 311.741,-286.5 305.741,-286.5 299.741,-280.5 299.741,-274.5 299.741,-274.5 299.741,-184.5 299.741,-184.5 299.741,-178.5 305.741,-172.5 311.741,-172.5"/>
<text text-anchor="middle" x="385.6877" y="-271.3" font-family="Times,serif" font-size="14.00" fill="#000000">Distrito</text>
<polyline fill="none" stroke="#000000" points="299.741,-264.5 471.6345,-264.5 "/>
<text text-anchor="start" x="307.741" y="-249.3" font-family="Times,serif" font-size="14.00" fill="#000000">id :INTEGER</text>
<text text-anchor="start" x="307.741" y="-235.3" font-family="Times,serif" font-size="14.00" fill="#000000">numero_distrito :integer</text>
<text text-anchor="start" x="307.741" y="-221.3" font-family="Times,serif" font-size="14.00" fill="#000000">created_at :datetime</text>
<text text-anchor="start" x="307.741" y="-207.3" font-family="Times,serif" font-size="14.00" fill="#000000">updated_at :datetime</text>
<text text-anchor="start" x="307.741" y="-193.3" font-family="Times,serif" font-size="14.00" fill="#000000">magnitud_diputado :integer</text>
<text text-anchor="start" x="307.741" y="-179.3" font-family="Times,serif" font-size="14.00" fill="#000000">circunscripcions_id :integer</text>
</g>
<!-- Circunscripcion&#45;&gt;Distrito -->
<g id="edge1" class="edge">
<title>Circunscripcion&#45;&gt;Distrito</title>
<path fill="none" stroke="#fadda6" d="M442.1343,-323.3796C436.6058,-314.1847 430.9095,-304.7109 425.3597,-295.4808"/>
<ellipse fill="none" stroke="#fadda6" cx="444.3294" cy="-327.0303" rx="4" ry="4"/>
<polygon fill="#fadda6" stroke="#fadda6" points="425.247,-295.2933 423.9506,-284.4043 422.6705,-291.0082 420.0941,-286.7231 420.0941,-286.7231 420.0941,-286.7231 422.6705,-291.0082 416.2375,-289.042 425.247,-295.2933 425.247,-295.2933"/>
</g>
<!-- Senador -->
<g id="node7" class="node">
<title>Senador</title>
<path fill="none" stroke="#000000" d="M501.741,-165.5C501.741,-165.5 649.6345,-165.5 649.6345,-165.5 655.6345,-165.5 661.6345,-171.5 661.6345,-177.5 661.6345,-177.5 661.6345,-281.5 661.6345,-281.5 661.6345,-287.5 655.6345,-293.5 649.6345,-293.5 649.6345,-293.5 501.741,-293.5 501.741,-293.5 495.741,-293.5 489.741,-287.5 489.741,-281.5 489.741,-281.5 489.741,-177.5 489.741,-177.5 489.741,-171.5 495.741,-165.5 501.741,-165.5"/>
<text text-anchor="middle" x="575.6877" y="-278.3" font-family="Times,serif" font-size="14.00" fill="#000000">Senador</text>
<polyline fill="none" stroke="#000000" points="489.741,-271.5 661.6345,-271.5 "/>
<text text-anchor="start" x="497.741" y="-256.3" font-family="Times,serif" font-size="14.00" fill="#000000">pacto :varchar</text>
<text text-anchor="start" x="497.741" y="-242.3" font-family="Times,serif" font-size="14.00" fill="#000000">candidato :varchar</text>
<text text-anchor="start" x="497.741" y="-228.3" font-family="Times,serif" font-size="14.00" fill="#000000">partido :varchar</text>
<text text-anchor="start" x="497.741" y="-214.3" font-family="Times,serif" font-size="14.00" fill="#000000">id :INTEGER</text>
<text text-anchor="start" x="497.741" y="-200.3" font-family="Times,serif" font-size="14.00" fill="#000000">created_at :datetime</text>
<text text-anchor="start" x="497.741" y="-186.3" font-family="Times,serif" font-size="14.00" fill="#000000">updated_at :datetime</text>
<text text-anchor="start" x="497.741" y="-172.3" font-family="Times,serif" font-size="14.00" fill="#000000">circunscripcions_id :integer</text>
</g>
<!-- Circunscripcion&#45;&gt;Senador -->
<g id="edge2" class="edge">
<title>Circunscripcion&#45;&gt;Senador</title>
<path fill="none" stroke="#0b6b98" d="M519.2335,-323.3923C523.3738,-316.5063 527.6083,-309.4637 531.8049,-302.4841"/>
<ellipse fill="none" stroke="#0b6b98" cx="517.0461" cy="-327.0303" rx="4" ry="4"/>
<polygon fill="#0b6b98" stroke="#0b6b98" points="531.9374,-302.2636 540.947,-296.0123 534.5139,-297.9785 537.0904,-293.6935 537.0904,-293.6935 537.0904,-293.6935 534.5139,-297.9785 533.2338,-291.3746 531.9374,-302.2636 531.9374,-302.2636"/>
</g>
<!-- Comuna -->
<g id="node4" class="node">
<title>Comuna</title>
<path fill="none" stroke="#000000" d="M256.1824,-14.5C256.1824,-14.5 365.1931,-14.5 365.1931,-14.5 371.1931,-14.5 377.1931,-20.5 377.1931,-26.5 377.1931,-26.5 377.1931,-102.5 377.1931,-102.5 377.1931,-108.5 371.1931,-114.5 365.1931,-114.5 365.1931,-114.5 256.1824,-114.5 256.1824,-114.5 250.1824,-114.5 244.1824,-108.5 244.1824,-102.5 244.1824,-102.5 244.1824,-26.5 244.1824,-26.5 244.1824,-20.5 250.1824,-14.5 256.1824,-14.5"/>
<text text-anchor="middle" x="310.6877" y="-99.3" font-family="Times,serif" font-size="14.00" fill="#000000">Comuna</text>
<polyline fill="none" stroke="#000000" points="244.1824,-92.5 377.1931,-92.5 "/>
<text text-anchor="start" x="252.1824" y="-77.3" font-family="Times,serif" font-size="14.00" fill="#000000">id :INTEGER</text>
<text text-anchor="start" x="252.1824" y="-63.3" font-family="Times,serif" font-size="14.00" fill="#000000">nombre :varchar</text>
<text text-anchor="start" x="252.1824" y="-49.3" font-family="Times,serif" font-size="14.00" fill="#000000">created_at :datetime</text>
<text text-anchor="start" x="252.1824" y="-35.3" font-family="Times,serif" font-size="14.00" fill="#000000">updated_at :datetime</text>
<text text-anchor="start" x="252.1824" y="-21.3" font-family="Times,serif" font-size="14.00" fill="#000000">distritos_id :integer</text>
</g>
<!-- Diputado -->
<g id="node5" class="node">
<title>Diputado</title>
<path fill="none" stroke="#000000" d="M407.1824,-.5C407.1824,-.5 516.1931,-.5 516.1931,-.5 522.1931,-.5 528.1931,-6.5 528.1931,-12.5 528.1931,-12.5 528.1931,-116.5 528.1931,-116.5 528.1931,-122.5 522.1931,-128.5 516.1931,-128.5 516.1931,-128.5 407.1824,-128.5 407.1824,-128.5 401.1824,-128.5 395.1824,-122.5 395.1824,-116.5 395.1824,-116.5 395.1824,-12.5 395.1824,-12.5 395.1824,-6.5 401.1824,-.5 407.1824,-.5"/>
<text text-anchor="middle" x="461.6877" y="-113.3" font-family="Times,serif" font-size="14.00" fill="#000000">Diputado</text>
<polyline fill="none" stroke="#000000" points="395.1824,-106.5 528.1931,-106.5 "/>
<text text-anchor="start" x="403.1824" y="-91.3" font-family="Times,serif" font-size="14.00" fill="#000000">pacto :varchar</text>
<text text-anchor="start" x="403.1824" y="-77.3" font-family="Times,serif" font-size="14.00" fill="#000000">candidato :varchar</text>
<text text-anchor="start" x="403.1824" y="-63.3" font-family="Times,serif" font-size="14.00" fill="#000000">partido :varchar</text>
<text text-anchor="start" x="403.1824" y="-49.3" font-family="Times,serif" font-size="14.00" fill="#000000">id :INTEGER</text>
<text text-anchor="start" x="403.1824" y="-35.3" font-family="Times,serif" font-size="14.00" fill="#000000">created_at :datetime</text>
<text text-anchor="start" x="403.1824" y="-21.3" font-family="Times,serif" font-size="14.00" fill="#000000">updated_at :datetime</text>
<text text-anchor="start" x="403.1824" y="-7.3" font-family="Times,serif" font-size="14.00" fill="#000000">distritos_id :integer</text>
</g>
<!-- Distrito&#45;&gt;Comuna -->
<g id="edge3" class="edge">
<title>Distrito&#45;&gt;Comuna</title>
<path fill="none" stroke="#54cb42" d="M356.2371,-164.7086C350.1659,-151.352 343.7993,-137.3455 337.8152,-124.1805"/>
<ellipse fill="none" stroke="#54cb42" cx="358.0116" cy="-168.6126" rx="4" ry="4"/>
<polygon fill="#54cb42" stroke="#54cb42" points="337.6732,-123.8679 337.6318,-112.9021 335.6042,-119.3161 333.5351,-114.7643 333.5351,-114.7643 333.5351,-114.7643 335.6042,-119.3161 329.4385,-116.6264 337.6732,-123.8679 337.6732,-123.8679"/>
</g>
<!-- Distrito&#45;&gt;Diputado -->
<g id="edge4" class="edge">
<title>Distrito&#45;&gt;Diputado</title>
<path fill="none" stroke="#91d083" d="M415.4334,-164.9206C419.5021,-156.0874 423.7034,-146.9661 427.8383,-137.9889"/>
<ellipse fill="none" stroke="#91d083" cx="413.729" cy="-168.6209" rx="4" ry="4"/>
<polygon fill="#91d083" stroke="#91d083" points="427.9314,-137.7867 436.2023,-130.5866 430.0232,-133.2453 432.115,-128.7039 432.115,-128.7039 432.115,-128.7039 430.0232,-133.2453 428.0278,-126.8213 427.9314,-137.7867 427.9314,-137.7867"/>
</g>
</g>
</svg>
