<?xml version="1.0" encoding="UTF-8" standalone="no"?>
<!DOCTYPE svg PUBLIC "-//W3C//DTD SVG 1.1//EN"
 "http://www.w3.org/Graphics/SVG/1.1/DTD/svg11.dtd">
<!-- Generated by graphviz version 2.40.1 (20161225.0304)
 -->
<!-- Title: models_diagram Pages: 1 -->
<svg width="559pt" height="225pt"
 viewBox="0.00 0.00 558.77 225.00" xmlns="http://www.w3.org/2000/svg" xmlns:xlink="http://www.w3.org/1999/xlink">
<g id="graph0" class="graph" transform="scale(1 1) rotate(0) translate(4 221)">
<title>models_diagram</title>
<polygon fill="transparent" stroke="transparent" points="-4,4 -4,-221 554.7733,-221 554.7733,4 -4,4"/>
<!-- _diagram_info -->
<g id="node1" class="node">
<title>_diagram_info</title>
<text text-anchor="start" x="8" y="-202.6" font-family="Times,serif" font-size="13.00" fill="#000000">Models diagram</text>
<text text-anchor="start" x="8" y="-189.6" font-family="Times,serif" font-size="13.00" fill="#000000">Date: Jul 16 2017 &#45; 00:35</text>
<text text-anchor="start" x="8" y="-176.6" font-family="Times,serif" font-size="13.00" fill="#000000">Migration version: 20170715222416</text>
<text text-anchor="start" x="8" y="-163.6" font-family="Times,serif" font-size="13.00" fill="#000000">Generated by RailRoady 1.5.2</text>
<text text-anchor="start" x="8" y="-150.6" font-family="Times,serif" font-size="13.00" fill="#000000">http://railroady.prestonlee.com</text>
</g>
<!-- ApplicationRecord -->
<g id="node2" class="node">
<title>ApplicationRecord</title>
<ellipse fill="none" stroke="#000000" cx="302.6877" cy="-180.5" rx="77.2916" ry="18"/>
<text text-anchor="middle" x="302.6877" y="-176.3" font-family="Times,serif" font-size="14.00" fill="#000000">ApplicationRecord</text>
</g>
<!-- Circunscripcion -->
<g id="node3" class="node">
<title>Circunscripcion</title>
<ellipse fill="none" stroke="#000000" cx="464.6877" cy="-180.5" rx="66.6839" ry="18"/>
<text text-anchor="middle" x="464.6877" y="-176.3" font-family="Times,serif" font-size="14.00" fill="#000000">Circunscripcion</text>
</g>
<!-- Distrito -->
<g id="node6" class="node">
<title>Distrito</title>
<ellipse fill="none" stroke="#000000" cx="417.6877" cy="-90" rx="37.2594" ry="18"/>
<text text-anchor="middle" x="417.6877" y="-85.8" font-family="Times,serif" font-size="14.00" fill="#000000">Distrito</text>
</g>
<!-- Circunscripcion&#45;&gt;Distrito -->
<g id="edge1" class="edge">
<title>Circunscripcion&#45;&gt;Distrito</title>
<path fill="none" stroke="#34342e" d="M451.7001,-155.4919C445.3953,-143.3518 437.819,-128.7633 431.4187,-116.4394"/>
<ellipse fill="none" stroke="#34342e" cx="453.5585" cy="-159.0703" rx="4" ry="4"/>
<polygon fill="#34342e" stroke="#34342e" points="431.4032,-116.4094 430.7878,-105.4608 429.0987,-111.9721 426.7942,-107.5348 426.7942,-107.5348 426.7942,-107.5348 429.0987,-111.9721 422.8007,-109.6088 431.4032,-116.4094 431.4032,-116.4094"/>
</g>
<!-- Senador -->
<g id="node7" class="node">
<title>Senador</title>
<ellipse fill="none" stroke="#000000" cx="511.6877" cy="-90" rx="39.1713" ry="18"/>
<text text-anchor="middle" x="511.6877" y="-85.8" font-family="Times,serif" font-size="14.00" fill="#000000">Senador</text>
</g>
<!-- Circunscripcion&#45;&gt;Senador -->
<g id="edge2" class="edge">
<title>Circunscripcion&#45;&gt;Senador</title>
<path fill="none" stroke="#0dc80d" d="M477.6754,-155.4919C483.9802,-143.3518 491.5565,-128.7633 497.9568,-116.4394"/>
<ellipse fill="none" stroke="#0dc80d" cx="475.817" cy="-159.0703" rx="4" ry="4"/>
<polygon fill="#0dc80d" stroke="#0dc80d" points="497.9723,-116.4094 506.5748,-109.6088 500.2768,-111.9721 502.5813,-107.5348 502.5813,-107.5348 502.5813,-107.5348 500.2768,-111.9721 498.5877,-105.4608 497.9723,-116.4094 497.9723,-116.4094"/>
</g>
<!-- Comuna -->
<g id="node4" class="node">
<title>Comuna</title>
<ellipse fill="none" stroke="#000000" cx="367.6877" cy="-18" rx="40.149" ry="18"/>
<text text-anchor="middle" x="367.6877" y="-13.8" font-family="Times,serif" font-size="14.00" fill="#000000">Comuna</text>
</g>
<!-- Diputado -->
<g id="node5" class="node">
<title>Diputado</title>
<ellipse fill="none" stroke="#000000" cx="468.6877" cy="-18" rx="43.0387" ry="18"/>
<text text-anchor="middle" x="468.6877" y="-13.8" font-family="Times,serif" font-size="14.00" fill="#000000">Diputado</text>
</g>
<!-- Distrito&#45;&gt;Comuna -->
<g id="edge3" class="edge">
<title>Distrito&#45;&gt;Comuna</title>
<path fill="none" stroke="#44e79b" d="M401.1963,-66.2523C396.1772,-59.0248 390.6387,-51.0493 385.5345,-43.6993"/>
<ellipse fill="none" stroke="#44e79b" cx="403.5568" cy="-69.6515" rx="4" ry="4"/>
<polygon fill="#44e79b" stroke="#44e79b" points="385.5033,-43.6544 383.4955,-32.8739 382.6513,-39.5475 379.7993,-35.4407 379.7993,-35.4407 379.7993,-35.4407 382.6513,-39.5475 376.1032,-38.0075 385.5033,-43.6544 385.5033,-43.6544"/>
</g>
<!-- Distrito&#45;&gt;Diputado -->
<g id="edge4" class="edge">
<title>Distrito&#45;&gt;Diputado</title>
<path fill="none" stroke="#a62ef4" d="M434.5091,-66.2523C439.6285,-59.0248 445.2778,-51.0493 450.4841,-43.6993"/>
<ellipse fill="none" stroke="#a62ef4" cx="432.0861" cy="-69.6729" rx="4" ry="4"/>
<polygon fill="#a62ef4" stroke="#a62ef4" points="450.5537,-43.6009 460.0061,-38.0418 453.4438,-39.5208 456.3339,-35.4407 456.3339,-35.4407 456.3339,-35.4407 453.4438,-39.5208 452.6618,-32.8396 450.5537,-43.6009 450.5537,-43.6009"/>
</g>
</g>
</svg>
